<mxfile host="Electron" modified="2023-12-15T17:59:27.977Z" agent="Mozilla/5.0 (Windows NT 10.0; Win64; x64) AppleWebKit/537.36 (KHTML, like Gecko) draw.io/22.1.2 Chrome/114.0.5735.289 Electron/25.9.4 Safari/537.36" etag="IixEH7y-OAqCFb3EAVRe" version="22.1.2" type="device">
  <diagram name="PÃ¡gina-1" id="ZYXMJ0JzRPjwyjC_UqdJ">
    <mxGraphModel dx="2620" dy="1055" grid="1" gridSize="10" guides="1" tooltips="1" connect="1" arrows="1" fold="1" page="1" pageScale="1" pageWidth="827" pageHeight="1169" math="0" shadow="0">
      <root>
        <mxCell id="0" />
        <mxCell id="1" parent="0" />
        <mxCell id="vj166n-X5zTKNyu6WFIh-7" value="" style="edgeStyle=orthogonalEdgeStyle;rounded=0;orthogonalLoop=1;jettySize=auto;html=1;strokeWidth=3;" edge="1" parent="1" source="vj166n-X5zTKNyu6WFIh-5" target="vj166n-X5zTKNyu6WFIh-6">
          <mxGeometry relative="1" as="geometry" />
        </mxCell>
        <mxCell id="vj166n-X5zTKNyu6WFIh-5" value="inicio" style="html=1;dashed=0;whiteSpace=wrap;shape=mxgraph.dfd.start;fillColor=#a0522d;fontColor=#ffffff;strokeColor=#6D1F00;" vertex="1" parent="1">
          <mxGeometry x="340" y="40" width="120" height="40" as="geometry" />
        </mxCell>
        <mxCell id="vj166n-X5zTKNyu6WFIh-9" value="" style="edgeStyle=orthogonalEdgeStyle;rounded=0;orthogonalLoop=1;jettySize=auto;html=1;exitX=0.5;exitY=1;exitDx=0;exitDy=0;entryX=0.5;entryY=0;entryDx=0;entryDy=0;strokeWidth=3;" edge="1" parent="1" source="vj166n-X5zTKNyu6WFIh-11" target="vj166n-X5zTKNyu6WFIh-60">
          <mxGeometry relative="1" as="geometry">
            <mxPoint x="400" y="270" as="sourcePoint" />
          </mxGeometry>
        </mxCell>
        <mxCell id="vj166n-X5zTKNyu6WFIh-12" value="" style="edgeStyle=orthogonalEdgeStyle;rounded=0;orthogonalLoop=1;jettySize=auto;html=1;strokeWidth=3;" edge="1" parent="1" source="vj166n-X5zTKNyu6WFIh-6" target="vj166n-X5zTKNyu6WFIh-11">
          <mxGeometry relative="1" as="geometry" />
        </mxCell>
        <mxCell id="vj166n-X5zTKNyu6WFIh-6" value="S" style="shape=parallelogram;perimeter=parallelogramPerimeter;whiteSpace=wrap;html=1;dashed=0;fillColor=#76608a;fontColor=#ffffff;strokeColor=#432D57;" vertex="1" parent="1">
          <mxGeometry x="350" y="120" width="100" height="50" as="geometry" />
        </mxCell>
        <mxCell id="vj166n-X5zTKNyu6WFIh-14" value="" style="edgeStyle=orthogonalEdgeStyle;rounded=0;orthogonalLoop=1;jettySize=auto;html=1;exitX=0;exitY=0.5;exitDx=0;exitDy=0;strokeWidth=3;" edge="1" parent="1" source="vj166n-X5zTKNyu6WFIh-8" target="vj166n-X5zTKNyu6WFIh-21">
          <mxGeometry relative="1" as="geometry">
            <mxPoint x="310" y="390" as="sourcePoint" />
            <mxPoint x="130" y="420" as="targetPoint" />
            <Array as="points">
              <mxPoint x="45" y="420" />
            </Array>
          </mxGeometry>
        </mxCell>
        <mxCell id="vj166n-X5zTKNyu6WFIh-15" value="&lt;font style=&quot;font-size: 17px;&quot;&gt;si&lt;/font&gt;" style="edgeLabel;html=1;align=center;verticalAlign=middle;resizable=0;points=[];" vertex="1" connectable="0" parent="vj166n-X5zTKNyu6WFIh-14">
          <mxGeometry x="-0.5128" y="1" relative="1" as="geometry">
            <mxPoint x="30" y="-21" as="offset" />
          </mxGeometry>
        </mxCell>
        <mxCell id="vj166n-X5zTKNyu6WFIh-52" value="&lt;font style=&quot;font-size: 15px;&quot;&gt;no&lt;/font&gt;" style="edgeStyle=orthogonalEdgeStyle;rounded=0;orthogonalLoop=1;jettySize=auto;html=1;entryX=0.5;entryY=0;entryDx=0;entryDy=0;strokeWidth=3;" edge="1" parent="1" source="vj166n-X5zTKNyu6WFIh-8">
          <mxGeometry x="-1" y="10" relative="1" as="geometry">
            <mxPoint x="720" y="480" as="targetPoint" />
            <Array as="points">
              <mxPoint x="720" y="420" />
            </Array>
            <mxPoint as="offset" />
          </mxGeometry>
        </mxCell>
        <mxCell id="vj166n-X5zTKNyu6WFIh-8" value="el largo de S es igual a 3" style="shape=rhombus;html=1;dashed=0;whiteSpace=wrap;perimeter=rhombusPerimeter;fillColor=#6d8764;fontColor=#ffffff;strokeColor=#3A5431;" vertex="1" parent="1">
          <mxGeometry x="300" y="380" width="200" height="80" as="geometry" />
        </mxCell>
        <mxCell id="vj166n-X5zTKNyu6WFIh-11" value="resp = [ ]" style="html=1;dashed=0;whiteSpace=wrap;fillColor=#f0a30a;fontColor=#000000;strokeColor=#BD7000;" vertex="1" parent="1">
          <mxGeometry x="360" y="200" width="80" height="40" as="geometry" />
        </mxCell>
        <mxCell id="vj166n-X5zTKNyu6WFIh-40" value="&lt;font style=&quot;font-size: 13px;&quot;&gt;si&lt;/font&gt;" style="edgeStyle=orthogonalEdgeStyle;rounded=0;orthogonalLoop=1;jettySize=auto;html=1;strokeWidth=3;" edge="1" parent="1" source="vj166n-X5zTKNyu6WFIh-20" target="vj166n-X5zTKNyu6WFIh-24">
          <mxGeometry x="-1" y="10" relative="1" as="geometry">
            <mxPoint as="offset" />
          </mxGeometry>
        </mxCell>
        <mxCell id="vj166n-X5zTKNyu6WFIh-181" style="edgeStyle=orthogonalEdgeStyle;rounded=0;orthogonalLoop=1;jettySize=auto;html=1;exitX=0;exitY=0.5;exitDx=0;exitDy=0;entryX=0.5;entryY=0;entryDx=0;entryDy=0;strokeWidth=3;" edge="1" parent="1" source="vj166n-X5zTKNyu6WFIh-20" target="vj166n-X5zTKNyu6WFIh-131">
          <mxGeometry relative="1" as="geometry">
            <mxPoint x="-190" y="1200" as="targetPoint" />
            <Array as="points">
              <mxPoint x="-220" y="545" />
              <mxPoint x="-220" y="945" />
              <mxPoint x="450" y="945" />
            </Array>
          </mxGeometry>
        </mxCell>
        <mxCell id="vj166n-X5zTKNyu6WFIh-20" value="i &amp;lt; 3" style="shape=rhombus;html=1;dashed=0;whiteSpace=wrap;perimeter=rhombusPerimeter;fillColor=#647687;fontColor=#ffffff;strokeColor=#314354;" vertex="1" parent="1">
          <mxGeometry x="15" y="520" width="90" height="50" as="geometry" />
        </mxCell>
        <mxCell id="vj166n-X5zTKNyu6WFIh-23" value="" style="edgeStyle=orthogonalEdgeStyle;rounded=0;orthogonalLoop=1;jettySize=auto;html=1;strokeWidth=3;" edge="1" parent="1" source="vj166n-X5zTKNyu6WFIh-21" target="vj166n-X5zTKNyu6WFIh-20">
          <mxGeometry relative="1" as="geometry" />
        </mxCell>
        <mxCell id="vj166n-X5zTKNyu6WFIh-21" value="i = 0" style="html=1;dashed=0;whiteSpace=wrap;fillColor=#f0a30a;fontColor=#000000;strokeColor=#BD7000;" vertex="1" parent="1">
          <mxGeometry x="20" y="450" width="80" height="40" as="geometry" />
        </mxCell>
        <mxCell id="vj166n-X5zTKNyu6WFIh-26" value="&lt;font style=&quot;font-size: 18px;&quot;&gt;si&lt;/font&gt;" style="edgeStyle=orthogonalEdgeStyle;rounded=0;orthogonalLoop=1;jettySize=auto;html=1;strokeWidth=3;" edge="1" parent="1" source="vj166n-X5zTKNyu6WFIh-24" target="vj166n-X5zTKNyu6WFIh-25">
          <mxGeometry x="-0.908" y="-15" relative="1" as="geometry">
            <mxPoint as="offset" />
          </mxGeometry>
        </mxCell>
        <mxCell id="vj166n-X5zTKNyu6WFIh-30" value="&lt;font style=&quot;font-size: 15px;&quot;&gt;no&lt;/font&gt;" style="edgeStyle=orthogonalEdgeStyle;rounded=0;orthogonalLoop=1;jettySize=auto;html=1;strokeWidth=3;" edge="1" parent="1" source="vj166n-X5zTKNyu6WFIh-24" target="vj166n-X5zTKNyu6WFIh-29">
          <mxGeometry x="-0.9363" y="15" relative="1" as="geometry">
            <mxPoint as="offset" />
          </mxGeometry>
        </mxCell>
        <mxCell id="vj166n-X5zTKNyu6WFIh-24" value="S[i] = nom[0][i]" style="shape=rhombus;html=1;dashed=0;whiteSpace=wrap;perimeter=rhombusPerimeter;fillColor=#6d8764;fontColor=#ffffff;strokeColor=#3A5431;" vertex="1" parent="1">
          <mxGeometry x="-7.5" y="600" width="135" height="50" as="geometry" />
        </mxCell>
        <mxCell id="vj166n-X5zTKNyu6WFIh-38" value="" style="edgeStyle=orthogonalEdgeStyle;rounded=0;orthogonalLoop=1;jettySize=auto;html=1;strokeWidth=3;" edge="1" parent="1" source="vj166n-X5zTKNyu6WFIh-25" target="vj166n-X5zTKNyu6WFIh-37">
          <mxGeometry relative="1" as="geometry" />
        </mxCell>
        <mxCell id="vj166n-X5zTKNyu6WFIh-25" value="resp = resp + S[i]" style="html=1;dashed=0;whiteSpace=wrap;fillColor=#f0a30a;fontColor=#000000;strokeColor=#BD7000;" vertex="1" parent="1">
          <mxGeometry x="-120" y="660" width="100" height="40" as="geometry" />
        </mxCell>
        <mxCell id="vj166n-X5zTKNyu6WFIh-32" value="&lt;font style=&quot;font-size: 16px;&quot;&gt;si&lt;/font&gt;" style="edgeStyle=orthogonalEdgeStyle;rounded=0;orthogonalLoop=1;jettySize=auto;html=1;strokeWidth=3;" edge="1" parent="1" source="vj166n-X5zTKNyu6WFIh-29" target="vj166n-X5zTKNyu6WFIh-31">
          <mxGeometry x="-0.9287" y="-15" relative="1" as="geometry">
            <mxPoint as="offset" />
          </mxGeometry>
        </mxCell>
        <mxCell id="vj166n-X5zTKNyu6WFIh-34" value="&lt;font style=&quot;font-size: 15px;&quot;&gt;no&lt;/font&gt;" style="edgeStyle=orthogonalEdgeStyle;rounded=0;orthogonalLoop=1;jettySize=auto;html=1;exitX=1;exitY=0.5;exitDx=0;exitDy=0;strokeWidth=3;" edge="1" parent="1" source="vj166n-X5zTKNyu6WFIh-29" target="vj166n-X5zTKNyu6WFIh-33">
          <mxGeometry x="-1" y="16" relative="1" as="geometry">
            <mxPoint x="-4" y="1" as="offset" />
          </mxGeometry>
        </mxCell>
        <mxCell id="vj166n-X5zTKNyu6WFIh-29" value="S[i] = &#39;.&#39;" style="shape=rhombus;html=1;dashed=0;whiteSpace=wrap;perimeter=rhombusPerimeter;fillColor=#6d8764;fontColor=#ffffff;strokeColor=#3A5431;" vertex="1" parent="1">
          <mxGeometry x="5" y="690" width="110" height="50" as="geometry" />
        </mxCell>
        <mxCell id="vj166n-X5zTKNyu6WFIh-39" value="" style="edgeStyle=orthogonalEdgeStyle;rounded=0;orthogonalLoop=1;jettySize=auto;html=1;strokeWidth=3;" edge="1" parent="1" source="vj166n-X5zTKNyu6WFIh-31" target="vj166n-X5zTKNyu6WFIh-37">
          <mxGeometry relative="1" as="geometry" />
        </mxCell>
        <mxCell id="vj166n-X5zTKNyu6WFIh-31" value="resp = resp + nom[0][i]" style="html=1;dashed=0;whiteSpace=wrap;fillColor=#f0a30a;fontColor=#000000;strokeColor=#BD7000;" vertex="1" parent="1">
          <mxGeometry x="5" y="800" width="130" height="40" as="geometry" />
        </mxCell>
        <mxCell id="vj166n-X5zTKNyu6WFIh-36" value="" style="edgeStyle=orthogonalEdgeStyle;rounded=0;orthogonalLoop=1;jettySize=auto;html=1;" edge="1" parent="1" source="vj166n-X5zTKNyu6WFIh-33">
          <mxGeometry relative="1" as="geometry">
            <mxPoint x="215" y="810" as="targetPoint" />
          </mxGeometry>
        </mxCell>
        <mxCell id="vj166n-X5zTKNyu6WFIh-33" value="resp = &quot;something wrong&quot;" style="html=1;dashed=0;whiteSpace=wrap;fillColor=#f0a30a;fontColor=#000000;strokeColor=#BD7000;" vertex="1" parent="1">
          <mxGeometry x="140" y="750" width="150" height="40" as="geometry" />
        </mxCell>
        <mxCell id="vj166n-X5zTKNyu6WFIh-45" style="edgeStyle=orthogonalEdgeStyle;rounded=0;orthogonalLoop=1;jettySize=auto;html=1;exitX=0.5;exitY=1;exitDx=0;exitDy=0;entryX=1;entryY=0.5;entryDx=0;entryDy=0;strokeWidth=3;" edge="1" parent="1" source="vj166n-X5zTKNyu6WFIh-37" target="vj166n-X5zTKNyu6WFIh-20">
          <mxGeometry relative="1" as="geometry">
            <mxPoint x="-70" y="960" as="targetPoint" />
            <Array as="points">
              <mxPoint x="-70" y="870" />
              <mxPoint x="320" y="870" />
              <mxPoint x="320" y="545" />
            </Array>
          </mxGeometry>
        </mxCell>
        <mxCell id="vj166n-X5zTKNyu6WFIh-37" value="i = i +1" style="whiteSpace=wrap;html=1;dashed=0;fillColor=#f0a30a;fontColor=#000000;strokeColor=#BD7000;" vertex="1" parent="1">
          <mxGeometry x="-110" y="800" width="80" height="40" as="geometry" />
        </mxCell>
        <mxCell id="vj166n-X5zTKNyu6WFIh-46" value="" style="endArrow=none;html=1;rounded=0;exitX=1;exitY=0.5;exitDx=0;exitDy=0;strokeWidth=3;" edge="1" parent="1">
          <mxGeometry width="50" height="50" relative="1" as="geometry">
            <mxPoint x="255" y="830" as="sourcePoint" />
            <mxPoint x="320" y="830" as="targetPoint" />
          </mxGeometry>
        </mxCell>
        <mxCell id="vj166n-X5zTKNyu6WFIh-60" value="nom = [&quot;Bob&quot;,&quot;Alice&quot;,&quot;Cindy&quot;]" style="html=1;dashed=0;whiteSpace=wrap;fillColor=#f0a30a;fontColor=#000000;strokeColor=#BD7000;" vertex="1" parent="1">
          <mxGeometry x="300" y="280" width="200" height="40" as="geometry" />
        </mxCell>
        <mxCell id="vj166n-X5zTKNyu6WFIh-64" value="" style="edgeStyle=orthogonalEdgeStyle;rounded=0;orthogonalLoop=1;jettySize=auto;html=1;exitX=0.5;exitY=1;exitDx=0;exitDy=0;strokeWidth=3;" edge="1" parent="1" source="vj166n-X5zTKNyu6WFIh-60" target="vj166n-X5zTKNyu6WFIh-8">
          <mxGeometry relative="1" as="geometry">
            <mxPoint x="400" y="400" as="sourcePoint" />
          </mxGeometry>
        </mxCell>
        <mxCell id="vj166n-X5zTKNyu6WFIh-185" value="" style="edgeStyle=orthogonalEdgeStyle;rounded=0;orthogonalLoop=1;jettySize=auto;html=1;strokeWidth=3;" edge="1" parent="1" source="vj166n-X5zTKNyu6WFIh-131" target="vj166n-X5zTKNyu6WFIh-184">
          <mxGeometry relative="1" as="geometry" />
        </mxCell>
        <mxCell id="vj166n-X5zTKNyu6WFIh-131" value="print(resp)" style="html=1;dashed=0;whiteSpace=wrap;fillColor=#f0a30a;fontColor=#000000;strokeColor=#BD7000;" vertex="1" parent="1">
          <mxGeometry x="400" y="1220" width="100" height="50" as="geometry" />
        </mxCell>
        <mxCell id="vj166n-X5zTKNyu6WFIh-132" value="break" style="shape=parallelogram;perimeter=parallelogramPerimeter;whiteSpace=wrap;html=1;dashed=0;fillColor=#76608a;fontColor=#ffffff;strokeColor=#432D57;" vertex="1" parent="1">
          <mxGeometry x="160" y="810" width="100" height="50" as="geometry" />
        </mxCell>
        <mxCell id="vj166n-X5zTKNyu6WFIh-135" value="&lt;font style=&quot;font-size: 13px;&quot;&gt;si&lt;/font&gt;" style="edgeStyle=orthogonalEdgeStyle;rounded=0;orthogonalLoop=1;jettySize=auto;html=1;strokeWidth=3;" edge="1" parent="1" source="vj166n-X5zTKNyu6WFIh-137" target="vj166n-X5zTKNyu6WFIh-140">
          <mxGeometry x="-1" y="10" relative="1" as="geometry">
            <mxPoint as="offset" />
          </mxGeometry>
        </mxCell>
        <mxCell id="vj166n-X5zTKNyu6WFIh-136" style="edgeStyle=orthogonalEdgeStyle;rounded=0;orthogonalLoop=1;jettySize=auto;html=1;entryX=0.5;entryY=0;entryDx=0;entryDy=0;strokeWidth=3;" edge="1" parent="1" source="vj166n-X5zTKNyu6WFIh-137" target="vj166n-X5zTKNyu6WFIh-154">
          <mxGeometry relative="1" as="geometry">
            <mxPoint x="650" y="1110" as="targetPoint" />
          </mxGeometry>
        </mxCell>
        <mxCell id="vj166n-X5zTKNyu6WFIh-137" value="i &amp;lt; 5" style="shape=rhombus;html=1;dashed=0;whiteSpace=wrap;perimeter=rhombusPerimeter;fillColor=#647687;fontColor=#ffffff;strokeColor=#314354;" vertex="1" parent="1">
          <mxGeometry x="870" y="600" width="60" height="50" as="geometry" />
        </mxCell>
        <mxCell id="vj166n-X5zTKNyu6WFIh-138" value="&lt;font style=&quot;font-size: 18px;&quot;&gt;si&lt;/font&gt;" style="edgeStyle=orthogonalEdgeStyle;rounded=0;orthogonalLoop=1;jettySize=auto;html=1;strokeWidth=3;" edge="1" parent="1" source="vj166n-X5zTKNyu6WFIh-140" target="vj166n-X5zTKNyu6WFIh-142">
          <mxGeometry x="-0.908" y="-15" relative="1" as="geometry">
            <mxPoint as="offset" />
          </mxGeometry>
        </mxCell>
        <mxCell id="vj166n-X5zTKNyu6WFIh-139" value="&lt;font style=&quot;font-size: 15px;&quot;&gt;no&lt;/font&gt;" style="edgeStyle=orthogonalEdgeStyle;rounded=0;orthogonalLoop=1;jettySize=auto;html=1;strokeWidth=3;" edge="1" parent="1" source="vj166n-X5zTKNyu6WFIh-140" target="vj166n-X5zTKNyu6WFIh-145">
          <mxGeometry x="-0.9363" y="15" relative="1" as="geometry">
            <mxPoint as="offset" />
          </mxGeometry>
        </mxCell>
        <mxCell id="vj166n-X5zTKNyu6WFIh-140" value="S[i] = nom[i]" style="shape=rhombus;html=1;dashed=0;whiteSpace=wrap;perimeter=rhombusPerimeter;fillColor=#6d8764;fontColor=#ffffff;strokeColor=#3A5431;" vertex="1" parent="1">
          <mxGeometry x="845" y="680" width="110" height="50" as="geometry" />
        </mxCell>
        <mxCell id="vj166n-X5zTKNyu6WFIh-141" value="" style="edgeStyle=orthogonalEdgeStyle;rounded=0;orthogonalLoop=1;jettySize=auto;html=1;strokeWidth=3;" edge="1" parent="1" source="vj166n-X5zTKNyu6WFIh-142" target="vj166n-X5zTKNyu6WFIh-151">
          <mxGeometry relative="1" as="geometry" />
        </mxCell>
        <mxCell id="vj166n-X5zTKNyu6WFIh-142" value="resp = resp + S[i]" style="html=1;dashed=0;whiteSpace=wrap;fillColor=#f0a30a;fontColor=#000000;strokeColor=#BD7000;" vertex="1" parent="1">
          <mxGeometry x="720" y="740" width="100" height="40" as="geometry" />
        </mxCell>
        <mxCell id="vj166n-X5zTKNyu6WFIh-143" value="&lt;font style=&quot;font-size: 16px;&quot;&gt;si&lt;/font&gt;" style="edgeStyle=orthogonalEdgeStyle;rounded=0;orthogonalLoop=1;jettySize=auto;html=1;strokeWidth=3;" edge="1" parent="1" source="vj166n-X5zTKNyu6WFIh-145" target="vj166n-X5zTKNyu6WFIh-147">
          <mxGeometry x="-0.9287" y="-15" relative="1" as="geometry">
            <mxPoint as="offset" />
          </mxGeometry>
        </mxCell>
        <mxCell id="vj166n-X5zTKNyu6WFIh-144" value="&lt;font style=&quot;font-size: 15px;&quot;&gt;no&lt;/font&gt;" style="edgeStyle=orthogonalEdgeStyle;rounded=0;orthogonalLoop=1;jettySize=auto;html=1;exitX=1;exitY=0.5;exitDx=0;exitDy=0;strokeWidth=3;" edge="1" parent="1" source="vj166n-X5zTKNyu6WFIh-145" target="vj166n-X5zTKNyu6WFIh-149">
          <mxGeometry x="-1" y="16" relative="1" as="geometry">
            <mxPoint x="-4" y="1" as="offset" />
          </mxGeometry>
        </mxCell>
        <mxCell id="vj166n-X5zTKNyu6WFIh-145" value="S[i] = &#39;.&#39;" style="shape=rhombus;html=1;dashed=0;whiteSpace=wrap;perimeter=rhombusPerimeter;fillColor=#6d8764;fontColor=#ffffff;strokeColor=#3A5431;" vertex="1" parent="1">
          <mxGeometry x="845" y="770" width="110" height="50" as="geometry" />
        </mxCell>
        <mxCell id="vj166n-X5zTKNyu6WFIh-146" value="" style="edgeStyle=orthogonalEdgeStyle;rounded=0;orthogonalLoop=1;jettySize=auto;html=1;strokeWidth=3;" edge="1" parent="1" source="vj166n-X5zTKNyu6WFIh-147" target="vj166n-X5zTKNyu6WFIh-151">
          <mxGeometry relative="1" as="geometry" />
        </mxCell>
        <mxCell id="vj166n-X5zTKNyu6WFIh-147" value="resp = resp + nom[1][i]" style="html=1;dashed=0;whiteSpace=wrap;fillColor=#f0a30a;fontColor=#000000;strokeColor=#BD7000;" vertex="1" parent="1">
          <mxGeometry x="845" y="880" width="130" height="40" as="geometry" />
        </mxCell>
        <mxCell id="vj166n-X5zTKNyu6WFIh-148" value="" style="edgeStyle=orthogonalEdgeStyle;rounded=0;orthogonalLoop=1;jettySize=auto;html=1;strokeWidth=3;" edge="1" parent="1" source="vj166n-X5zTKNyu6WFIh-149">
          <mxGeometry relative="1" as="geometry">
            <mxPoint x="1055.04347826087" y="890" as="targetPoint" />
          </mxGeometry>
        </mxCell>
        <mxCell id="vj166n-X5zTKNyu6WFIh-149" value="resp = &quot;something wrong&quot;" style="html=1;dashed=0;whiteSpace=wrap;fillColor=#f0a30a;fontColor=#000000;strokeColor=#BD7000;" vertex="1" parent="1">
          <mxGeometry x="980" y="830" width="150" height="40" as="geometry" />
        </mxCell>
        <mxCell id="vj166n-X5zTKNyu6WFIh-150" style="edgeStyle=orthogonalEdgeStyle;rounded=0;orthogonalLoop=1;jettySize=auto;html=1;exitX=0.5;exitY=1;exitDx=0;exitDy=0;entryX=1;entryY=0.5;entryDx=0;entryDy=0;strokeWidth=3;" edge="1" parent="1" source="vj166n-X5zTKNyu6WFIh-151" target="vj166n-X5zTKNyu6WFIh-137">
          <mxGeometry relative="1" as="geometry">
            <mxPoint x="770" y="1040" as="targetPoint" />
            <Array as="points">
              <mxPoint x="770" y="950" />
              <mxPoint x="1160" y="950" />
              <mxPoint x="1160" y="625" />
            </Array>
          </mxGeometry>
        </mxCell>
        <mxCell id="vj166n-X5zTKNyu6WFIh-151" value="i = i +1" style="whiteSpace=wrap;html=1;dashed=0;fillColor=#f0a30a;fontColor=#000000;strokeColor=#BD7000;" vertex="1" parent="1">
          <mxGeometry x="730" y="880" width="80" height="40" as="geometry" />
        </mxCell>
        <mxCell id="vj166n-X5zTKNyu6WFIh-152" value="" style="endArrow=none;html=1;rounded=0;exitX=1;exitY=0.5;exitDx=0;exitDy=0;strokeWidth=3;" edge="1" parent="1">
          <mxGeometry width="50" height="50" relative="1" as="geometry">
            <mxPoint x="1095" y="910" as="sourcePoint" />
            <mxPoint x="1160" y="910" as="targetPoint" />
          </mxGeometry>
        </mxCell>
        <mxCell id="vj166n-X5zTKNyu6WFIh-153" value="&lt;font style=&quot;font-size: 16px;&quot;&gt;no&lt;/font&gt;" style="edgeStyle=orthogonalEdgeStyle;rounded=0;orthogonalLoop=1;jettySize=auto;html=1;exitX=1;exitY=0.5;exitDx=0;exitDy=0;strokeWidth=3;" edge="1" parent="1" source="vj166n-X5zTKNyu6WFIh-154" target="vj166n-X5zTKNyu6WFIh-156">
          <mxGeometry x="-1" y="15" relative="1" as="geometry">
            <mxPoint x="790" y="1030" as="targetPoint" />
            <mxPoint as="offset" />
          </mxGeometry>
        </mxCell>
        <mxCell id="vj166n-X5zTKNyu6WFIh-182" style="edgeStyle=orthogonalEdgeStyle;rounded=0;orthogonalLoop=1;jettySize=auto;html=1;entryX=0.5;entryY=0;entryDx=0;entryDy=0;strokeWidth=3;" edge="1" parent="1" source="vj166n-X5zTKNyu6WFIh-154" target="vj166n-X5zTKNyu6WFIh-131">
          <mxGeometry relative="1" as="geometry" />
        </mxCell>
        <mxCell id="vj166n-X5zTKNyu6WFIh-154" value="if&amp;nbsp; resp = nom[1]" style="shape=rhombus;html=1;dashed=0;whiteSpace=wrap;perimeter=rhombusPerimeter;fillColor=#6d8764;fontColor=#ffffff;strokeColor=#3A5431;" vertex="1" parent="1">
          <mxGeometry x="540" y="970" width="180" height="90" as="geometry" />
        </mxCell>
        <mxCell id="vj166n-X5zTKNyu6WFIh-155" value="" style="edgeStyle=orthogonalEdgeStyle;rounded=0;orthogonalLoop=1;jettySize=auto;html=1;entryX=0.5;entryY=0;entryDx=0;entryDy=0;strokeWidth=3;" edge="1" parent="1" source="vj166n-X5zTKNyu6WFIh-156" target="vj166n-X5zTKNyu6WFIh-158">
          <mxGeometry relative="1" as="geometry" />
        </mxCell>
        <mxCell id="vj166n-X5zTKNyu6WFIh-156" value="res = &quot;&quot;" style="html=1;dashed=0;whiteSpace=wrap;fillColor=#f0a30a;fontColor=#000000;strokeColor=#BD7000;" vertex="1" parent="1">
          <mxGeometry x="860" y="1030" width="80" height="40" as="geometry" />
        </mxCell>
        <mxCell id="vj166n-X5zTKNyu6WFIh-157" value="&lt;font style=&quot;font-size: 13px;&quot;&gt;si&lt;/font&gt;" style="edgeStyle=orthogonalEdgeStyle;rounded=0;orthogonalLoop=1;jettySize=auto;html=1;strokeWidth=3;" edge="1" parent="1" source="vj166n-X5zTKNyu6WFIh-158" target="vj166n-X5zTKNyu6WFIh-161">
          <mxGeometry x="-1" y="10" relative="1" as="geometry">
            <mxPoint as="offset" />
          </mxGeometry>
        </mxCell>
        <mxCell id="vj166n-X5zTKNyu6WFIh-183" style="edgeStyle=orthogonalEdgeStyle;rounded=0;orthogonalLoop=1;jettySize=auto;html=1;entryX=0.5;entryY=0;entryDx=0;entryDy=0;strokeWidth=3;" edge="1" parent="1" source="vj166n-X5zTKNyu6WFIh-158" target="vj166n-X5zTKNyu6WFIh-131">
          <mxGeometry relative="1" as="geometry" />
        </mxCell>
        <mxCell id="vj166n-X5zTKNyu6WFIh-158" value="i &amp;lt; 5" style="shape=rhombus;html=1;dashed=0;whiteSpace=wrap;perimeter=rhombusPerimeter;fillColor=#647687;fontColor=#ffffff;strokeColor=#314354;" vertex="1" parent="1">
          <mxGeometry x="870" y="1100" width="60" height="50" as="geometry" />
        </mxCell>
        <mxCell id="vj166n-X5zTKNyu6WFIh-159" value="&lt;font style=&quot;font-size: 18px;&quot;&gt;si&lt;/font&gt;" style="edgeStyle=orthogonalEdgeStyle;rounded=0;orthogonalLoop=1;jettySize=auto;html=1;strokeWidth=3;" edge="1" parent="1" source="vj166n-X5zTKNyu6WFIh-161" target="vj166n-X5zTKNyu6WFIh-163">
          <mxGeometry x="-0.908" y="-15" relative="1" as="geometry">
            <mxPoint as="offset" />
          </mxGeometry>
        </mxCell>
        <mxCell id="vj166n-X5zTKNyu6WFIh-160" value="&lt;font style=&quot;font-size: 15px;&quot;&gt;no&lt;/font&gt;" style="edgeStyle=orthogonalEdgeStyle;rounded=0;orthogonalLoop=1;jettySize=auto;html=1;strokeWidth=3;" edge="1" parent="1" source="vj166n-X5zTKNyu6WFIh-161" target="vj166n-X5zTKNyu6WFIh-166">
          <mxGeometry x="-0.9363" y="15" relative="1" as="geometry">
            <mxPoint as="offset" />
          </mxGeometry>
        </mxCell>
        <mxCell id="vj166n-X5zTKNyu6WFIh-161" value="S[i] = nom[i]" style="shape=rhombus;html=1;dashed=0;whiteSpace=wrap;perimeter=rhombusPerimeter;fillColor=#6d8764;fontColor=#ffffff;strokeColor=#3A5431;" vertex="1" parent="1">
          <mxGeometry x="845" y="1180" width="110" height="50" as="geometry" />
        </mxCell>
        <mxCell id="vj166n-X5zTKNyu6WFIh-162" value="" style="edgeStyle=orthogonalEdgeStyle;rounded=0;orthogonalLoop=1;jettySize=auto;html=1;strokeWidth=3;" edge="1" parent="1" source="vj166n-X5zTKNyu6WFIh-163" target="vj166n-X5zTKNyu6WFIh-172">
          <mxGeometry relative="1" as="geometry" />
        </mxCell>
        <mxCell id="vj166n-X5zTKNyu6WFIh-163" value="resp = resp + S[i]" style="html=1;dashed=0;whiteSpace=wrap;fillColor=#f0a30a;fontColor=#000000;strokeColor=#BD7000;" vertex="1" parent="1">
          <mxGeometry x="720" y="1240" width="100" height="40" as="geometry" />
        </mxCell>
        <mxCell id="vj166n-X5zTKNyu6WFIh-164" value="&lt;font style=&quot;font-size: 16px;&quot;&gt;si&lt;/font&gt;" style="edgeStyle=orthogonalEdgeStyle;rounded=0;orthogonalLoop=1;jettySize=auto;html=1;strokeWidth=3;" edge="1" parent="1" source="vj166n-X5zTKNyu6WFIh-166" target="vj166n-X5zTKNyu6WFIh-168">
          <mxGeometry x="-0.9287" y="-15" relative="1" as="geometry">
            <mxPoint as="offset" />
          </mxGeometry>
        </mxCell>
        <mxCell id="vj166n-X5zTKNyu6WFIh-165" value="&lt;font style=&quot;font-size: 15px;&quot;&gt;no&lt;/font&gt;" style="edgeStyle=orthogonalEdgeStyle;rounded=0;orthogonalLoop=1;jettySize=auto;html=1;exitX=1;exitY=0.5;exitDx=0;exitDy=0;strokeWidth=3;" edge="1" parent="1" source="vj166n-X5zTKNyu6WFIh-166" target="vj166n-X5zTKNyu6WFIh-170">
          <mxGeometry x="-1" y="16" relative="1" as="geometry">
            <mxPoint x="-4" y="1" as="offset" />
          </mxGeometry>
        </mxCell>
        <mxCell id="vj166n-X5zTKNyu6WFIh-166" value="S[i] = &#39;.&#39;" style="shape=rhombus;html=1;dashed=0;whiteSpace=wrap;perimeter=rhombusPerimeter;fillColor=#6d8764;fontColor=#ffffff;strokeColor=#3A5431;" vertex="1" parent="1">
          <mxGeometry x="845" y="1270" width="110" height="50" as="geometry" />
        </mxCell>
        <mxCell id="vj166n-X5zTKNyu6WFIh-167" value="" style="edgeStyle=orthogonalEdgeStyle;rounded=0;orthogonalLoop=1;jettySize=auto;html=1;strokeWidth=3;" edge="1" parent="1" source="vj166n-X5zTKNyu6WFIh-168" target="vj166n-X5zTKNyu6WFIh-172">
          <mxGeometry relative="1" as="geometry" />
        </mxCell>
        <mxCell id="vj166n-X5zTKNyu6WFIh-168" value="resp = resp + nom[2][i]" style="html=1;dashed=0;whiteSpace=wrap;fillColor=#f0a30a;fontColor=#000000;strokeColor=#BD7000;" vertex="1" parent="1">
          <mxGeometry x="845" y="1380" width="130" height="40" as="geometry" />
        </mxCell>
        <mxCell id="vj166n-X5zTKNyu6WFIh-169" value="" style="edgeStyle=orthogonalEdgeStyle;rounded=0;orthogonalLoop=1;jettySize=auto;html=1;strokeWidth=3;" edge="1" parent="1" source="vj166n-X5zTKNyu6WFIh-170">
          <mxGeometry relative="1" as="geometry">
            <mxPoint x="1055.04347826087" y="1390" as="targetPoint" />
          </mxGeometry>
        </mxCell>
        <mxCell id="vj166n-X5zTKNyu6WFIh-170" value="resp = &quot;something wrong&quot;" style="html=1;dashed=0;whiteSpace=wrap;fillColor=#f0a30a;fontColor=#000000;strokeColor=#BD7000;" vertex="1" parent="1">
          <mxGeometry x="980" y="1330" width="150" height="40" as="geometry" />
        </mxCell>
        <mxCell id="vj166n-X5zTKNyu6WFIh-171" style="edgeStyle=orthogonalEdgeStyle;rounded=0;orthogonalLoop=1;jettySize=auto;html=1;exitX=0.5;exitY=1;exitDx=0;exitDy=0;entryX=1;entryY=0.5;entryDx=0;entryDy=0;strokeWidth=3;" edge="1" parent="1" source="vj166n-X5zTKNyu6WFIh-172" target="vj166n-X5zTKNyu6WFIh-158">
          <mxGeometry relative="1" as="geometry">
            <mxPoint x="770" y="1540" as="targetPoint" />
            <Array as="points">
              <mxPoint x="770" y="1450" />
              <mxPoint x="1160" y="1450" />
              <mxPoint x="1160" y="1125" />
            </Array>
          </mxGeometry>
        </mxCell>
        <mxCell id="vj166n-X5zTKNyu6WFIh-172" value="i = i +1" style="whiteSpace=wrap;html=1;dashed=0;fillColor=#f0a30a;fontColor=#000000;strokeColor=#BD7000;" vertex="1" parent="1">
          <mxGeometry x="730" y="1380" width="80" height="40" as="geometry" />
        </mxCell>
        <mxCell id="vj166n-X5zTKNyu6WFIh-173" value="" style="endArrow=none;html=1;rounded=0;exitX=1;exitY=0.5;exitDx=0;exitDy=0;" edge="1" parent="1">
          <mxGeometry width="50" height="50" relative="1" as="geometry">
            <mxPoint x="1095" y="1410" as="sourcePoint" />
            <mxPoint x="1160" y="1410" as="targetPoint" />
          </mxGeometry>
        </mxCell>
        <mxCell id="vj166n-X5zTKNyu6WFIh-174" value="break" style="shape=parallelogram;perimeter=parallelogramPerimeter;whiteSpace=wrap;html=1;dashed=0;fillColor=#76608a;fontColor=#ffffff;strokeColor=#432D57;" vertex="1" parent="1">
          <mxGeometry x="1005" y="890" width="100" height="50" as="geometry" />
        </mxCell>
        <mxCell id="vj166n-X5zTKNyu6WFIh-175" value="break" style="shape=parallelogram;perimeter=parallelogramPerimeter;whiteSpace=wrap;html=1;dashed=0;fillColor=#f0a30a;fontColor=#000000;strokeColor=#BD7000;" vertex="1" parent="1">
          <mxGeometry x="1005" y="1390" width="100" height="50" as="geometry" />
        </mxCell>
        <mxCell id="vj166n-X5zTKNyu6WFIh-178" value="&lt;font style=&quot;font-size: 21px;&quot;&gt;si&lt;/font&gt;" style="edgeStyle=orthogonalEdgeStyle;rounded=0;orthogonalLoop=1;jettySize=auto;html=1;strokeWidth=3;" edge="1" parent="1" source="vj166n-X5zTKNyu6WFIh-176" target="vj166n-X5zTKNyu6WFIh-177">
          <mxGeometry x="-1" y="-20" relative="1" as="geometry">
            <mxPoint as="offset" />
          </mxGeometry>
        </mxCell>
        <mxCell id="vj166n-X5zTKNyu6WFIh-179" value="&lt;font style=&quot;font-size: 19px;&quot;&gt;no&lt;/font&gt;" style="edgeStyle=orthogonalEdgeStyle;rounded=0;orthogonalLoop=1;jettySize=auto;html=1;exitX=1;exitY=0.5;exitDx=0;exitDy=0;entryX=0.5;entryY=0;entryDx=0;entryDy=0;strokeWidth=3;" edge="1" parent="1" source="vj166n-X5zTKNyu6WFIh-176" target="vj166n-X5zTKNyu6WFIh-137">
          <mxGeometry x="-0.9333" y="20" relative="1" as="geometry">
            <mxPoint as="offset" />
          </mxGeometry>
        </mxCell>
        <mxCell id="vj166n-X5zTKNyu6WFIh-176" value="&lt;font style=&quot;font-size: 19px;&quot;&gt;S = &quot;.....&quot;&lt;/font&gt;" style="shape=rhombus;html=1;dashed=0;whiteSpace=wrap;perimeter=rhombusPerimeter;fillColor=#6d8764;fontColor=#ffffff;strokeColor=#3A5431;" vertex="1" parent="1">
          <mxGeometry x="640" y="480" width="150" height="80" as="geometry" />
        </mxCell>
        <mxCell id="vj166n-X5zTKNyu6WFIh-180" style="edgeStyle=orthogonalEdgeStyle;rounded=0;orthogonalLoop=1;jettySize=auto;html=1;entryX=0.5;entryY=0;entryDx=0;entryDy=0;strokeWidth=3;" edge="1" parent="1" source="vj166n-X5zTKNyu6WFIh-177" target="vj166n-X5zTKNyu6WFIh-131">
          <mxGeometry relative="1" as="geometry" />
        </mxCell>
        <mxCell id="vj166n-X5zTKNyu6WFIh-177" value="&lt;font style=&quot;font-size: 18px;&quot;&gt;resp = &quot;CAN&#39;T TELL&quot;&lt;/font&gt;" style="whiteSpace=wrap;html=1;dashed=0;fillColor=#f0a30a;fontColor=#000000;strokeColor=#BD7000;" vertex="1" parent="1">
          <mxGeometry x="390" y="610" width="190" height="60" as="geometry" />
        </mxCell>
        <mxCell id="vj166n-X5zTKNyu6WFIh-184" value="&lt;font style=&quot;font-size: 17px;&quot;&gt;fin&lt;/font&gt;" style="html=1;dashed=0;whiteSpace=wrap;shape=mxgraph.dfd.start;fillColor=#a0522d;fontColor=#ffffff;strokeColor=#6D1F00;" vertex="1" parent="1">
          <mxGeometry x="385" y="1340" width="130" height="60" as="geometry" />
        </mxCell>
      </root>
    </mxGraphModel>
  </diagram>
</mxfile>
